<svg xmlns="http://www.w3.org/2000/svg" version="1.1" xmlns:xlink="http://www.w3.org/1999/xlink" xmlns:svgjs="http://svgjs.com/svgjs" width="600" height="600" preserveAspectRatio="none" viewBox="0 0 600 600">
    <g mask="url(&quot;#SvgjsMask1065&quot;)" fill="none">
        <rect width="600" height="600" x="0" y="0" fill="rgba(0, 0, 39, 1)"></rect>
        <path d="M0,262.557C51.426,260.032,103.993,257.036,147.781,229.951C191.967,202.619,226.846,160.493,244.184,111.515C260.789,64.606,252.35,13.839,241.471,-34.718C231.269,-80.255,210.642,-121.052,183.564,-159.059C154.052,-200.481,125.651,-247.664,77.693,-264.597C29.007,-281.787,-22.98,-261.164,-73.338,-249.767C-127.071,-237.606,-193,-239.949,-226.031,-195.857C-259.139,-151.662,-229.127,-88.7,-235.121,-33.805C-240.838,18.552,-274.546,68.189,-260.402,118.922C-245.532,172.259,-205.895,218.192,-157.411,244.936C-110.224,270.964,-53.824,265.2,0,262.557" fill="#000019"></path>
        <path d="M600 840.7719999999999C645.447 842.678 685.121 816.012 725.995 796.052 772.297 773.441 826.594 759.488 854.783 716.355 884.335 671.136 886.489 613.356 880.477 559.673 874.337 504.84000000000003 858.6379999999999 448.796 820.37 409.048 782.885 370.113 727.278 358.04499999999996 674.623 345.85699999999997 624.5889999999999 334.275 571.052 320.339 523.772 340.392 477.955 359.824 461.93100000000004 414.58299999999997 427.60900000000004 450.622 391.005 489.057 330.536 508.195 315.488 559.093 300.155 610.954 317.796 670.625 349.64 714.336 379.527 755.361 435.31100000000004 762.881 480.618 785.762 520.537 805.922 555.318 838.898 600 840.7719999999999" fill="#000035"></path>
    </g>
    <defs>
        <mask id="SvgjsMask1065">
            <rect width="600" height="600" fill="#ffffff"></rect>
        </mask>
    </defs>
</svg>